<svg xmlns="http://www.w3.org/2000/svg" width="56" height="60" viewBox="0 0 56 60">
    <g fill="none" fill-rule="nonzero">
        <g fill="#000">
            <path d="M0 7.888l3.189 26.518c1.51 9.566 11.748 20.979 24.587 25.51V0H5.916L0 7.888zM49.636 0h-21.86v59.916c12.881-4.531 23.077-15.944 24.588-25.51l3.188-26.518L49.636 0z"/>
        </g>
        <g fill="#FFF">
            <path d="M40.364 32.308V17.664h-5.665v-3.44c.798.042 1.553-.042 2.308-.168a5.561 5.561 0 0 0 2.014-.755c.587-.336 1.09-.84 1.51-1.385.42-.587.672-1.3.798-2.14h3.65v22.532h-4.615zM31.007 15.357c-.042-.084-.126-.168-.21-.168l-5.748-1.133-9.944 29.874a.403.403 0 0 1-.378.294c-.042 0-.084 0-.126-.042-.21-.084-.335-.294-.251-.504l9.818-29.538-3.147 1.51c-.042.042-.126.084-.126.168l-9.86 27.315c-.042.126 0 .294.126.336l2.937 1.384c.042 0 .084.042.126.042h.042l6.755-.881c.126 0 .21-.084.21-.21l1.678-6 3.483-.168 5.958-.335c.21 0 .377.126.42.293l1.132 3.86a.372.372 0 0 1-.294.504h-.125a.403.403 0 0 1-.378-.294l-1.05-3.524-1.845.084.88 3.608a.506.506 0 0 0 .21.21l2.392.461h.042l1.427-.167 3.356-.42a.23.23 0 0 0 .21-.126c.042-.084.042-.126.042-.21l-7.762-26.223zm.378 17.16c-.084.084-.21.168-.336.168h-6.881c-.126 0-.252-.084-.336-.168a.408.408 0 0 1-.042-.377l3.567-11.203c.042-.168.251-.294.377-.294.168 0 .336.126.378.294l3.315 11.203c.042.168.042.294-.042.377z"/>
            <path d="M26.853 25.217l1.804 6.671h1.846l-2.769-9.44z"/>
        </g>
    </g>
</svg>
